<mxfile host="app.diagrams.net" modified="2022-11-05T07:04:46.716Z" agent="5.0 (Windows NT 10.0; Win64; x64) AppleWebKit/537.36 (KHTML, like Gecko) Chrome/107.0.0.0 Safari/537.36" etag="kB2Bo3MbdyIZxYPPNdNq" version="20.5.2" type="github">
  <diagram id="C5RBs43oDa-KdzZeNtuy" name="Page-1">
    <mxGraphModel dx="2249" dy="754" grid="1" gridSize="10" guides="1" tooltips="1" connect="1" arrows="1" fold="1" page="1" pageScale="1" pageWidth="827" pageHeight="1169" math="0" shadow="0">
      <root>
        <mxCell id="WIyWlLk6GJQsqaUBKTNV-0" />
        <mxCell id="WIyWlLk6GJQsqaUBKTNV-1" parent="WIyWlLk6GJQsqaUBKTNV-0" />
        <mxCell id="dVrcLOaJFnjUfsEQykfC-52" value="" style="rounded=0;whiteSpace=wrap;html=1;fontSize=12;" vertex="1" parent="WIyWlLk6GJQsqaUBKTNV-1">
          <mxGeometry x="-10" y="540" width="820" height="730" as="geometry" />
        </mxCell>
        <mxCell id="dVrcLOaJFnjUfsEQykfC-14" value="" style="rounded=0;whiteSpace=wrap;html=1;" vertex="1" parent="WIyWlLk6GJQsqaUBKTNV-1">
          <mxGeometry x="140" y="660" width="220" height="570" as="geometry" />
        </mxCell>
        <mxCell id="dVrcLOaJFnjUfsEQykfC-15" value="클라이언트 실행" style="rounded=0;whiteSpace=wrap;html=1;" vertex="1" parent="WIyWlLk6GJQsqaUBKTNV-1">
          <mxGeometry x="160" y="700" width="170" height="30" as="geometry" />
        </mxCell>
        <mxCell id="dVrcLOaJFnjUfsEQykfC-16" value="" style="shape=flexArrow;endArrow=classic;html=1;rounded=0;exitX=0.5;exitY=1;exitDx=0;exitDy=0;" edge="1" parent="WIyWlLk6GJQsqaUBKTNV-1" source="dVrcLOaJFnjUfsEQykfC-15">
          <mxGeometry width="50" height="50" relative="1" as="geometry">
            <mxPoint x="530" y="850" as="sourcePoint" />
            <mxPoint x="245" y="760" as="targetPoint" />
          </mxGeometry>
        </mxCell>
        <mxCell id="dVrcLOaJFnjUfsEQykfC-17" value="" style="rounded=0;whiteSpace=wrap;html=1;" vertex="1" parent="WIyWlLk6GJQsqaUBKTNV-1">
          <mxGeometry x="160" y="760" width="170" height="120" as="geometry" />
        </mxCell>
        <mxCell id="dVrcLOaJFnjUfsEQykfC-18" value="로그인/인증" style="rounded=0;whiteSpace=wrap;html=1;" vertex="1" parent="WIyWlLk6GJQsqaUBKTNV-1">
          <mxGeometry x="170" y="770" width="150" height="40" as="geometry" />
        </mxCell>
        <mxCell id="dVrcLOaJFnjUfsEQykfC-19" value="메인 화면" style="rounded=0;whiteSpace=wrap;html=1;" vertex="1" parent="WIyWlLk6GJQsqaUBKTNV-1">
          <mxGeometry x="170" y="830" width="150" height="40" as="geometry" />
        </mxCell>
        <mxCell id="dVrcLOaJFnjUfsEQykfC-20" value="" style="endArrow=classic;html=1;rounded=0;exitX=0.5;exitY=1;exitDx=0;exitDy=0;entryX=0.5;entryY=0;entryDx=0;entryDy=0;" edge="1" parent="WIyWlLk6GJQsqaUBKTNV-1" source="dVrcLOaJFnjUfsEQykfC-18" target="dVrcLOaJFnjUfsEQykfC-19">
          <mxGeometry width="50" height="50" relative="1" as="geometry">
            <mxPoint x="530" y="850" as="sourcePoint" />
            <mxPoint x="580" y="800" as="targetPoint" />
          </mxGeometry>
        </mxCell>
        <mxCell id="dVrcLOaJFnjUfsEQykfC-21" value="&lt;b&gt;&lt;font style=&quot;font-size: 16px;&quot;&gt;CLIENT&lt;/font&gt;&lt;/b&gt;" style="text;html=1;strokeColor=none;fillColor=none;align=center;verticalAlign=middle;whiteSpace=wrap;rounded=0;" vertex="1" parent="WIyWlLk6GJQsqaUBKTNV-1">
          <mxGeometry x="180" y="660" width="130" height="30" as="geometry" />
        </mxCell>
        <mxCell id="dVrcLOaJFnjUfsEQykfC-22" value="" style="rounded=0;whiteSpace=wrap;html=1;fontSize=16;" vertex="1" parent="WIyWlLk6GJQsqaUBKTNV-1">
          <mxGeometry x="434" y="660" width="246" height="520" as="geometry" />
        </mxCell>
        <mxCell id="dVrcLOaJFnjUfsEQykfC-23" value="&lt;b&gt;SERVER&lt;/b&gt;" style="text;html=1;strokeColor=none;fillColor=none;align=center;verticalAlign=middle;whiteSpace=wrap;rounded=0;fontSize=16;" vertex="1" parent="WIyWlLk6GJQsqaUBKTNV-1">
          <mxGeometry x="497" y="660" width="120" height="30" as="geometry" />
        </mxCell>
        <mxCell id="dVrcLOaJFnjUfsEQykfC-24" value="로그인 정보(playstore 연동)" style="rounded=0;whiteSpace=wrap;html=1;" vertex="1" parent="WIyWlLk6GJQsqaUBKTNV-1">
          <mxGeometry x="472" y="695" width="178" height="40" as="geometry" />
        </mxCell>
        <mxCell id="dVrcLOaJFnjUfsEQykfC-25" value="" style="endArrow=classic;startArrow=classic;html=1;rounded=0;fontSize=16;exitX=1;exitY=0.5;exitDx=0;exitDy=0;entryX=0;entryY=0.5;entryDx=0;entryDy=0;" edge="1" parent="WIyWlLk6GJQsqaUBKTNV-1" source="dVrcLOaJFnjUfsEQykfC-18" target="dVrcLOaJFnjUfsEQykfC-24">
          <mxGeometry width="50" height="50" relative="1" as="geometry">
            <mxPoint x="370" y="810" as="sourcePoint" />
            <mxPoint x="420" y="760" as="targetPoint" />
          </mxGeometry>
        </mxCell>
        <mxCell id="dVrcLOaJFnjUfsEQykfC-26" value="" style="endArrow=classic;startArrow=classic;html=1;rounded=0;fontSize=16;exitX=1;exitY=0.5;exitDx=0;exitDy=0;entryX=0.006;entryY=0.142;entryDx=0;entryDy=0;entryPerimeter=0;" edge="1" parent="WIyWlLk6GJQsqaUBKTNV-1" source="dVrcLOaJFnjUfsEQykfC-19" target="dVrcLOaJFnjUfsEQykfC-30">
          <mxGeometry width="50" height="50" relative="1" as="geometry">
            <mxPoint x="330" y="800" as="sourcePoint" />
            <mxPoint x="472" y="840" as="targetPoint" />
          </mxGeometry>
        </mxCell>
        <mxCell id="dVrcLOaJFnjUfsEQykfC-27" value="" style="shape=flexArrow;endArrow=classic;html=1;rounded=0;fontSize=12;exitX=0.5;exitY=1;exitDx=0;exitDy=0;entryX=0.5;entryY=0;entryDx=0;entryDy=0;" edge="1" parent="WIyWlLk6GJQsqaUBKTNV-1" source="dVrcLOaJFnjUfsEQykfC-17" target="dVrcLOaJFnjUfsEQykfC-28">
          <mxGeometry width="50" height="50" relative="1" as="geometry">
            <mxPoint x="530" y="980" as="sourcePoint" />
            <mxPoint x="490" y="1140" as="targetPoint" />
          </mxGeometry>
        </mxCell>
        <mxCell id="dVrcLOaJFnjUfsEQykfC-28" value="&lt;span style=&quot;color: rgba(0, 0, 0, 0); font-family: monospace; font-size: 0px; text-align: start;&quot;&gt;%3CmxGraphModel%3E%3Croot%3E%3CmxCell%20id%3D%220%22%2F%3E%3CmxCell%20id%3D%221%22%20parent%3D%220%22%2F%3E%3CmxCell%20id%3D%222%22%20value%3D%22%EC%BA%90%EB%A6%AD%ED%84%B0%20%EC%84%A0%ED%83%9D%22%20style%3D%22rounded%3D0%3BwhiteSpace%3Dwrap%3Bhtml%3D1%3BfontSize%3D12%3B%22%20vertex%3D%221%22%20parent%3D%221%22%3E%3CmxGeometry%20x%3D%2230%22%20y%3D%22280%22%20width%3D%22150%22%20height%3D%2230%22%20as%3D%22geometry%22%2F%3E%3C%2FmxCell%3E%3C%2Froot%3E%3C%2FmxGraphModel%3E&lt;/span&gt;" style="rounded=0;whiteSpace=wrap;html=1;" vertex="1" parent="WIyWlLk6GJQsqaUBKTNV-1">
          <mxGeometry x="160" y="930" width="170" height="290" as="geometry" />
        </mxCell>
        <mxCell id="dVrcLOaJFnjUfsEQykfC-29" value="캐릭터 선택" style="rounded=0;whiteSpace=wrap;html=1;fontSize=12;" vertex="1" parent="WIyWlLk6GJQsqaUBKTNV-1">
          <mxGeometry x="170" y="940" width="150" height="30" as="geometry" />
        </mxCell>
        <mxCell id="dVrcLOaJFnjUfsEQykfC-30" value="계정 정보" style="swimlane;fontStyle=0;childLayout=stackLayout;horizontal=1;startSize=30;horizontalStack=0;resizeParent=1;resizeParentMax=0;resizeLast=0;collapsible=1;marginBottom=0;fontSize=12;" vertex="1" parent="WIyWlLk6GJQsqaUBKTNV-1">
          <mxGeometry x="472" y="770" width="178" height="150" as="geometry" />
        </mxCell>
        <mxCell id="dVrcLOaJFnjUfsEQykfC-31" value="게임진행도" style="text;strokeColor=none;fillColor=none;align=left;verticalAlign=middle;spacingLeft=4;spacingRight=4;overflow=hidden;points=[[0,0.5],[1,0.5]];portConstraint=eastwest;rotatable=0;fontSize=12;" vertex="1" parent="dVrcLOaJFnjUfsEQykfC-30">
          <mxGeometry y="30" width="178" height="30" as="geometry" />
        </mxCell>
        <mxCell id="dVrcLOaJFnjUfsEQykfC-32" value="레벨" style="text;strokeColor=none;fillColor=none;align=left;verticalAlign=middle;spacingLeft=4;spacingRight=4;overflow=hidden;points=[[0,0.5],[1,0.5]];portConstraint=eastwest;rotatable=0;fontSize=12;" vertex="1" parent="dVrcLOaJFnjUfsEQykfC-30">
          <mxGeometry y="60" width="178" height="30" as="geometry" />
        </mxCell>
        <mxCell id="dVrcLOaJFnjUfsEQykfC-33" value="재화" style="text;strokeColor=none;fillColor=none;align=left;verticalAlign=middle;spacingLeft=4;spacingRight=4;overflow=hidden;points=[[0,0.5],[1,0.5]];portConstraint=eastwest;rotatable=0;fontSize=12;" vertex="1" parent="dVrcLOaJFnjUfsEQykfC-30">
          <mxGeometry y="90" width="178" height="30" as="geometry" />
        </mxCell>
        <mxCell id="dVrcLOaJFnjUfsEQykfC-34" value="달성한 업적" style="text;strokeColor=none;fillColor=none;align=left;verticalAlign=middle;spacingLeft=4;spacingRight=4;overflow=hidden;points=[[0,0.5],[1,0.5]];portConstraint=eastwest;rotatable=0;fontSize=12;" vertex="1" parent="dVrcLOaJFnjUfsEQykfC-30">
          <mxGeometry y="120" width="178" height="30" as="geometry" />
        </mxCell>
        <mxCell id="dVrcLOaJFnjUfsEQykfC-35" value="상점 페이지" style="rounded=0;whiteSpace=wrap;html=1;fontSize=12;" vertex="1" parent="WIyWlLk6GJQsqaUBKTNV-1">
          <mxGeometry x="170" y="980" width="150" height="30" as="geometry" />
        </mxCell>
        <mxCell id="dVrcLOaJFnjUfsEQykfC-36" value="레벨업 페이지" style="rounded=0;whiteSpace=wrap;html=1;fontSize=12;" vertex="1" parent="WIyWlLk6GJQsqaUBKTNV-1">
          <mxGeometry x="170" y="1020" width="150" height="30" as="geometry" />
        </mxCell>
        <mxCell id="dVrcLOaJFnjUfsEQykfC-37" value="스테이지 선택" style="rounded=0;whiteSpace=wrap;html=1;fontSize=12;" vertex="1" parent="WIyWlLk6GJQsqaUBKTNV-1">
          <mxGeometry x="170" y="1060" width="150" height="30" as="geometry" />
        </mxCell>
        <mxCell id="dVrcLOaJFnjUfsEQykfC-38" value="메인 게임 화면" style="rounded=0;whiteSpace=wrap;html=1;fontSize=12;" vertex="1" parent="WIyWlLk6GJQsqaUBKTNV-1">
          <mxGeometry x="170" y="1100" width="150" height="30" as="geometry" />
        </mxCell>
        <mxCell id="dVrcLOaJFnjUfsEQykfC-39" value="일시 정지" style="rounded=0;whiteSpace=wrap;html=1;fontSize=12;" vertex="1" parent="WIyWlLk6GJQsqaUBKTNV-1">
          <mxGeometry x="170" y="1140" width="150" height="30" as="geometry" />
        </mxCell>
        <mxCell id="dVrcLOaJFnjUfsEQykfC-40" value="게임 오버 화면" style="rounded=0;whiteSpace=wrap;html=1;fontSize=12;" vertex="1" parent="WIyWlLk6GJQsqaUBKTNV-1">
          <mxGeometry x="170" y="1180" width="150" height="30" as="geometry" />
        </mxCell>
        <mxCell id="dVrcLOaJFnjUfsEQykfC-41" value="" style="curved=1;endArrow=classic;html=1;rounded=0;fontSize=12;exitX=0;exitY=0.5;exitDx=0;exitDy=0;entryX=0;entryY=0.5;entryDx=0;entryDy=0;" edge="1" parent="WIyWlLk6GJQsqaUBKTNV-1" source="dVrcLOaJFnjUfsEQykfC-40" target="dVrcLOaJFnjUfsEQykfC-19">
          <mxGeometry width="50" height="50" relative="1" as="geometry">
            <mxPoint x="530" y="980" as="sourcePoint" />
            <mxPoint x="580" y="930" as="targetPoint" />
            <Array as="points">
              <mxPoint x="50" y="1180" />
              <mxPoint x="60" y="870" />
            </Array>
          </mxGeometry>
        </mxCell>
        <mxCell id="dVrcLOaJFnjUfsEQykfC-42" value="" style="endArrow=classic;startArrow=classic;html=1;rounded=0;fontSize=12;exitX=1;exitY=0.5;exitDx=0;exitDy=0;entryX=0.006;entryY=0.133;entryDx=0;entryDy=0;entryPerimeter=0;" edge="1" parent="WIyWlLk6GJQsqaUBKTNV-1" source="dVrcLOaJFnjUfsEQykfC-28" target="dVrcLOaJFnjUfsEQykfC-30">
          <mxGeometry width="50" height="50" relative="1" as="geometry">
            <mxPoint x="430" y="1100" as="sourcePoint" />
            <mxPoint x="480" y="1050" as="targetPoint" />
          </mxGeometry>
        </mxCell>
        <mxCell id="dVrcLOaJFnjUfsEQykfC-43" value="게임 정보(업데이트)" style="swimlane;fontStyle=0;childLayout=stackLayout;horizontal=1;startSize=30;horizontalStack=0;resizeParent=1;resizeParentMax=0;resizeLast=0;collapsible=1;marginBottom=0;fontSize=12;" vertex="1" parent="WIyWlLk6GJQsqaUBKTNV-1">
          <mxGeometry x="470" y="940" width="178" height="180" as="geometry" />
        </mxCell>
        <mxCell id="dVrcLOaJFnjUfsEQykfC-44" value="능력 정보" style="text;strokeColor=none;fillColor=none;align=left;verticalAlign=middle;spacingLeft=4;spacingRight=4;overflow=hidden;points=[[0,0.5],[1,0.5]];portConstraint=eastwest;rotatable=0;fontSize=12;" vertex="1" parent="dVrcLOaJFnjUfsEQykfC-43">
          <mxGeometry y="30" width="178" height="30" as="geometry" />
        </mxCell>
        <mxCell id="dVrcLOaJFnjUfsEQykfC-45" value="아이템 정보" style="text;strokeColor=none;fillColor=none;align=left;verticalAlign=middle;spacingLeft=4;spacingRight=4;overflow=hidden;points=[[0,0.5],[1,0.5]];portConstraint=eastwest;rotatable=0;fontSize=12;" vertex="1" parent="dVrcLOaJFnjUfsEQykfC-43">
          <mxGeometry y="60" width="178" height="30" as="geometry" />
        </mxCell>
        <mxCell id="dVrcLOaJFnjUfsEQykfC-46" value="적 정보" style="text;strokeColor=none;fillColor=none;align=left;verticalAlign=middle;spacingLeft=4;spacingRight=4;overflow=hidden;points=[[0,0.5],[1,0.5]];portConstraint=eastwest;rotatable=0;fontSize=12;" vertex="1" parent="dVrcLOaJFnjUfsEQykfC-43">
          <mxGeometry y="90" width="178" height="30" as="geometry" />
        </mxCell>
        <mxCell id="dVrcLOaJFnjUfsEQykfC-47" value="능력/아이템 조합법" style="text;strokeColor=none;fillColor=none;align=left;verticalAlign=middle;spacingLeft=4;spacingRight=4;overflow=hidden;points=[[0,0.5],[1,0.5]];portConstraint=eastwest;rotatable=0;fontSize=12;" vertex="1" parent="dVrcLOaJFnjUfsEQykfC-43">
          <mxGeometry y="120" width="178" height="30" as="geometry" />
        </mxCell>
        <mxCell id="dVrcLOaJFnjUfsEQykfC-48" value="업적 달성 정보" style="text;strokeColor=none;fillColor=none;align=left;verticalAlign=middle;spacingLeft=4;spacingRight=4;overflow=hidden;points=[[0,0.5],[1,0.5]];portConstraint=eastwest;rotatable=0;fontSize=12;" vertex="1" parent="dVrcLOaJFnjUfsEQykfC-43">
          <mxGeometry y="150" width="178" height="30" as="geometry" />
        </mxCell>
        <mxCell id="dVrcLOaJFnjUfsEQykfC-49" value="" style="endArrow=classic;startArrow=classic;html=1;rounded=0;fontSize=12;exitX=1;exitY=0.5;exitDx=0;exitDy=0;entryX=0.011;entryY=0.1;entryDx=0;entryDy=0;entryPerimeter=0;" edge="1" parent="WIyWlLk6GJQsqaUBKTNV-1" source="dVrcLOaJFnjUfsEQykfC-28" target="dVrcLOaJFnjUfsEQykfC-43">
          <mxGeometry width="50" height="50" relative="1" as="geometry">
            <mxPoint x="340" y="1085" as="sourcePoint" />
            <mxPoint x="483.0680000000002" y="799.95" as="targetPoint" />
          </mxGeometry>
        </mxCell>
        <mxCell id="dVrcLOaJFnjUfsEQykfC-53" value="&lt;font style=&quot;font-size: 24px;&quot;&gt;Client &amp;amp; Server 순서 예상도&lt;/font&gt;" style="text;html=1;strokeColor=none;fillColor=none;align=center;verticalAlign=middle;whiteSpace=wrap;rounded=0;fontSize=12;" vertex="1" parent="WIyWlLk6GJQsqaUBKTNV-1">
          <mxGeometry x="120" y="560" width="560" height="50" as="geometry" />
        </mxCell>
      </root>
    </mxGraphModel>
  </diagram>
</mxfile>
